<svg xmlns="http://www.w3.org/2000/svg" viewBox="0 0 660.13 183.94"><defs><style>.cls-1{fill:#1d0d41;}.cls-2{fill:#972f90;}.cls-3{fill:#e82359;}.cls-4{fill:#fff;}</style></defs><title>bongist dark</title><g id="Layer_2" data-name="Layer 2"><g id="Layer_1-2" data-name="Layer 1"><path class="cls-1" d="M267.29,130.87c-1.33,0-2.88,0-4.66-.12s-3.6-.23-5.46-.47-3.69-.52-5.49-.87a22.75,22.75,0,0,1-4.84-1.47q-5.91-2.44-4.62-8.54l11.62-54.67a6.51,6.51,0,0,1,2.15-3.8,12.6,12.6,0,0,1,4.15-2.17,51.18,51.18,0,0,1,10.39-2A118.13,118.13,0,0,1,283,56.07q15,0,22,5t4.77,15.56a17.71,17.71,0,0,1-5,9.08,23.15,23.15,0,0,1-9.38,5.56,15.26,15.26,0,0,1,8.51,6q3,4.32,1.61,10.88-2.48,11.6-12.25,17.15T267.29,130.87Zm2-45.07h8.54q5,0,7.72-1.87a8.59,8.59,0,0,0,3.45-5.5,4.77,4.77,0,0,0-1.56-5c-1.49-1.25-4-1.88-7.51-1.88-1.17,0-2.52,0-4.06.12a33.24,33.24,0,0,0-3.64.35Zm-6.07,28.57a19.19,19.19,0,0,0,4.08.64c1.69.12,3.31.17,4.87.17a16.73,16.73,0,0,0,8.2-1.93,8.54,8.54,0,0,0,4.38-6c.55-2.58.08-4.41-1.4-5.51s-4-1.64-7.5-1.64h-9.6Z"/><path class="cls-1" d="M342,130.06a29.7,29.7,0,0,1-10.79-1.93,24.58,24.58,0,0,1-8.69-5.6,25.9,25.9,0,0,1-5.78-9.1A34.4,34.4,0,0,1,314.63,101a45.58,45.58,0,0,1,3-16.82,42.5,42.5,0,0,1,8.13-13.24,37.1,37.1,0,0,1,11.85-8.7,33.31,33.31,0,0,1,14.17-3.12A29.41,29.41,0,0,1,362.55,61a24.53,24.53,0,0,1,8.66,5.61A26.11,26.11,0,0,1,377,75.74a34,34,0,0,1,2.12,12.44,45,45,0,0,1-3,16.69A42.67,42.67,0,0,1,368,118.15a37.13,37.13,0,0,1-11.84,8.76A33.07,33.07,0,0,1,342,130.06Zm1.86-15.26a9.84,9.84,0,0,0,6.17-2.1,16.92,16.92,0,0,0,4.61-5.7,33.22,33.22,0,0,0,2.92-8.43,48.76,48.76,0,0,0,1-10.26q0-7.5-2-10.71t-6.6-3.22a9.82,9.82,0,0,0-6.17,2.09,16.88,16.88,0,0,0-4.61,5.67,32.31,32.31,0,0,0-2.92,8.43,49.18,49.18,0,0,0-1,10.29q0,7.36,2,10.65T343.84,114.8Z"/><path class="cls-1" d="M423.74,129l5.18-43.74c.09-.71.15-1.36.2-2s.06-1.16.06-1.69q0-3.51-1.22-4.88a4.75,4.75,0,0,0-3.69-1.36,9.58,9.58,0,0,0-4.71,1.4,18.37,18.37,0,0,0-4.68,3.91,30,30,0,0,0-4.08,6.14,36,36,0,0,0-2.92,8L404.1,129H383.52l8.23-68.83h10.62a7.55,7.55,0,0,1,5,1.5q1.78,1.48,1.79,4.88v5.5A33.74,33.74,0,0,1,420,62.27a25.55,25.55,0,0,1,12.22-3.16,17.55,17.55,0,0,1,7.06,1.4,15.17,15.17,0,0,1,5.54,4.08,19.63,19.63,0,0,1,3.66,6.6,28.24,28.24,0,0,1,1.32,9c0,.79,0,1.61-.1,2.45s-.14,1.71-.23,2.59L444.31,129Z"/><path class="cls-1" d="M514,80.75A20.07,20.07,0,0,1,512.84,88a56.23,56.23,0,0,1-2.56,5.64q-1.39,2.66-2.55,5.45a16.84,16.84,0,0,0-1.17,6.57,13.61,13.61,0,0,0,.9,5q.9,2.28,2,4.68c.7,1.59,1.36,3.27,1.95,5a19,19,0,0,1,.9,6.11,22.52,22.52,0,0,1-2.32,10,24.56,24.56,0,0,1-6.7,8.3,33.79,33.79,0,0,1-10.79,5.64,52,52,0,0,1-26.58.69,30.85,30.85,0,0,1-9-3.78,17.76,17.76,0,0,1-5.68-5.67,13.48,13.48,0,0,1-2-7.07,15.55,15.55,0,0,1,3-9.72,21.69,21.69,0,0,1,7.6-6.24,35.84,35.84,0,0,1,10.28-3.32,65.68,65.68,0,0,1,11-1q3,0,5.81.26c1.83.18,3.52.42,5.07.73a9.66,9.66,0,0,1-.13-1.62V112a22.21,22.21,0,0,1,1.79-8,21.89,21.89,0,0,1-5.94,2.72,29.83,29.83,0,0,1-8.33,1,22,22,0,0,1-7.5-1.29,17.65,17.65,0,0,1-6.33-4,19.39,19.39,0,0,1-4.42-6.67,24.94,24.94,0,0,1-1.66-9.52,26.69,26.69,0,0,1,2-10,25.33,25.33,0,0,1,5.84-8.69,28.89,28.89,0,0,1,9.63-6.14,35.41,35.41,0,0,1,13.37-2.33,31.06,31.06,0,0,1,7.53.9,24.94,24.94,0,0,1,6.67,2.69h19.78l-.93,6.43c-.4,2.7-1.68,4.41-3.85,5.11l-5.84,2A25.65,25.65,0,0,1,514,80.75Zm-20.44,47.32v-.8a4.11,4.11,0,0,0-.07-.73q-3.39-.53-6.21-.8c-1.88-.17-3.59-.26-5.14-.26A30.91,30.91,0,0,0,476,126a15.3,15.3,0,0,0-4.18,1.43,6,6,0,0,0-2.35,2.12,4.91,4.91,0,0,0-.73,2.56,5.81,5.81,0,0,0,2.48,5.11q2.49,1.72,8.4,1.72a19.17,19.17,0,0,0,5.64-.79,13.45,13.45,0,0,0,4.41-2.23,10.37,10.37,0,0,0,2.86-3.41A9.63,9.63,0,0,0,493.56,128.07Zm-8.23-32.32a7.37,7.37,0,0,0,4.28-1.26,10.72,10.72,0,0,0,3.05-3.29,16.29,16.29,0,0,0,1.86-4.54,21.11,21.11,0,0,0,.63-5.12,11,11,0,0,0-1.79-6.7,6.45,6.45,0,0,0-5.51-2.39,7.81,7.81,0,0,0-4.28,1.16,9.7,9.7,0,0,0-3,3.09,14.56,14.56,0,0,0-1.79,4.45,22.57,22.57,0,0,0-.6,5.24A11.61,11.61,0,0,0,480,93.26,6.2,6.2,0,0,0,485.33,95.75Z"/><path class="cls-1" d="M553.29,60.17,545.06,129H524.75L533,60.17Zm3.84-18.84a10.29,10.29,0,0,1-1.06,4.61,13,13,0,0,1-2.78,3.78,13.58,13.58,0,0,1-3.95,2.59,11.41,11.41,0,0,1-4.55,1,10.7,10.7,0,0,1-4.45-1,12.64,12.64,0,0,1-3.75-2.59A13.11,13.11,0,0,1,534,45.94a10.94,10.94,0,0,1-1-4.61,11.16,11.16,0,0,1,1-4.65,12.84,12.84,0,0,1,2.69-3.85,13.26,13.26,0,0,1,3.82-2.62,10.62,10.62,0,0,1,4.44-1,11.58,11.58,0,0,1,4.58.93,12.43,12.43,0,0,1,3.89,2.59,13.31,13.31,0,0,1,2.72,3.84A11.06,11.06,0,0,1,557.13,41.33Z"/><path class="cls-1" d="M606.24,74.64a7.77,7.77,0,0,1-1.72,1.73,3.82,3.82,0,0,1-2.13.53,6.21,6.21,0,0,1-2.62-.6c-.86-.4-1.79-.85-2.78-1.36a22.36,22.36,0,0,0-3.39-1.36,14.38,14.38,0,0,0-4.35-.6q-4.57,0-6.53,1.76a5.83,5.83,0,0,0-2,4.55,4.49,4.49,0,0,0,1.09,3,11,11,0,0,0,2.89,2.26,28.82,28.82,0,0,0,4.08,1.82q2.29.84,4.68,1.86a43.62,43.62,0,0,1,4.68,2.36,17.38,17.38,0,0,1,4.08,3.25,15,15,0,0,1,2.89,4.58,16.48,16.48,0,0,1,1.09,6.3,23.77,23.77,0,0,1-2,9.79,23.18,23.18,0,0,1-5.91,8A29,29,0,0,1,589,128a35.55,35.55,0,0,1-12.31,2,31.63,31.63,0,0,1-6.44-.66,35.64,35.64,0,0,1-6-1.8,27.4,27.4,0,0,1-5.14-2.68,16.94,16.94,0,0,1-3.78-3.36l5-7.56a7.38,7.38,0,0,1,2.16-2.09,5.57,5.57,0,0,1,3-.77,5,5,0,0,1,2.85.8l2.59,1.73a19,19,0,0,0,3.32,1.72,13.36,13.36,0,0,0,5,.8q4.38,0,6.5-2a6.06,6.06,0,0,0,2.13-4.61,5.17,5.17,0,0,0-1.1-3.39,9.75,9.75,0,0,0-2.88-2.29,27.24,27.24,0,0,0-4.05-1.72q-2.26-.77-4.65-1.69a39.86,39.86,0,0,1-4.64-2.16,16.48,16.48,0,0,1-4.05-3.09,13.84,13.84,0,0,1-2.89-4.58,17.58,17.58,0,0,1-1.09-6.57,25.44,25.44,0,0,1,1.75-9.29,23.12,23.12,0,0,1,5.25-8,26,26,0,0,1,8.66-5.6,31.59,31.59,0,0,1,12.08-2.13,30.24,30.24,0,0,1,12.31,2.39,29.87,29.87,0,0,1,8.92,5.84Z"/><path class="cls-1" d="M618.32,114.13V113c0-.44,0-1.07.1-1.89s.18-1.9.33-3.25l.63-5.34,3.52-28.14h-5.51a2.94,2.94,0,0,1-2.12-.83,3.27,3.27,0,0,1-.86-2.49s0-.43.13-1.16.17-1.51.26-2.32.18-1.59.27-2.3.13-1.1.13-1.19l.2-1.79,10.42-2.13,5.77-16.79a4.28,4.28,0,0,1,4.52-3.18h11.15l-2.52,20.11h15.39l-1.72,14.07H643l-3.32,27c-.22,1.81-.39,3.24-.5,4.28s-.2,1.84-.26,2.39-.11.93-.13,1.13a3.2,3.2,0,0,0,0,.36,5.49,5.49,0,0,0,.9,3.22,3.2,3.2,0,0,0,2.82,1.29,5.52,5.52,0,0,0,1.76-.23,7,7,0,0,0,1.23-.53c.35-.2.68-.37,1-.53a2.39,2.39,0,0,1,1.06-.23,2,2,0,0,1,1.4.43,4.09,4.09,0,0,1,.86,1.36l4.51,9.76a30.86,30.86,0,0,1-8.82,4.48,31.48,31.48,0,0,1-9.49,1.49,21.94,21.94,0,0,1-7.17-1.1,15.5,15.5,0,0,1-5.48-3.18,14.81,14.81,0,0,1-3.58-5A17.93,17.93,0,0,1,618.32,114.13Z"/><path class="cls-2" d="M183.94,43.41v97.12a43.33,43.33,0,0,1-43.41,43.41H43.41A43.36,43.36,0,0,1,0,140.53V43.41A43.4,43.4,0,0,1,43.41,0h97.12A43.4,43.4,0,0,1,183.94,43.41Z"/><path class="cls-3" d="M156.43,53.3V181a43.39,43.39,0,0,1-15.9,3H43.41a43.21,43.21,0,0,1-14.89-2.62V140.69L76.64,51.8,99.18,40.17Z"/><path class="cls-4" d="M149.55,36.79q-10.83-8.57-36.37-8.59a206.52,206.52,0,0,0-21.33,1.11A92.72,92.72,0,0,0,73.69,32.8a25,25,0,0,0-7.57,3.7A13.18,13.18,0,0,0,61.59,43L49.23,78.9H0v24.34H40.84L29.5,136.17q-3.57,10.4,6,14.58a35.71,35.71,0,0,0,7.93,2.49q4.48.9,9.16,1.49c3.12.41,6.19.67,9.21.8s5.64.21,7.92.21q27.52,0,45.47-9.49T139.88,117q3.84-11.16-.29-18.55c-2.78-4.93-7.15-8.31-13.16-10.18a46.43,46.43,0,0,0,17.23-9.48,35.78,35.78,0,0,0,10.52-15.47Q160.36,45.38,149.55,36.79Zm-44.84,78.63a17.39,17.39,0,0,1-8.84,10.27A30.9,30.9,0,0,1,81.48,129c-2.66,0-5.42-.11-8.28-.31a29.84,29.84,0,0,1-6.81-1.1l8.39-24.35H91.14q9,0,12.41,2.81T104.71,115.42Zm13.71-49.09a17.43,17.43,0,0,1-7.12,9.38q-5,3.2-13.57,3.19H83.15l8.11-23.55a59,59,0,0,1,6.3-.6c2.63-.12,5-.19,7-.19,6,0,10.11,1,12.38,3.19S119.66,62.74,118.42,66.33Z"/></g></g></svg>